<?xml version="1.0" encoding="UTF-8"?>
<svg xmlns="http://www.w3.org/2000/svg" xmlns:xlink="http://www.w3.org/1999/xlink" width="15pt" height="15pt" viewBox="0 0 15 15" version="1.1">
<g id="surface1">
<path style=" stroke:none;fill-rule:nonzero;fill:rgb(0%,0%,0%);fill-opacity:1;" d="M 14.101562 0.898438 C 13.5 0.300781 12.777344 0 11.933594 0 L 3.066406 0 C 2.222656 0 1.5 0.300781 0.898438 0.898438 C 0.300781 1.5 0 2.222656 0 3.066406 L 0 11.933594 C 0 12.777344 0.300781 13.5 0.898438 14.101562 C 1.5 14.699219 2.222656 15 3.066406 15 L 11.933594 15 C 12.777344 15 13.5 14.699219 14.101562 14.101562 C 14.699219 13.5 15 12.777344 15 11.933594 L 15 3.066406 C 15 2.222656 14.699219 1.5 14.101562 0.898438 Z M 13.636719 11.933594 C 13.636719 12.402344 13.472656 12.800781 13.136719 13.136719 C 12.800781 13.472656 12.402344 13.636719 11.933594 13.636719 L 3.066406 13.636719 C 2.597656 13.636719 2.199219 13.472656 1.863281 13.136719 C 1.527344 12.800781 1.363281 12.402344 1.363281 11.933594 L 1.363281 3.066406 C 1.363281 2.597656 1.527344 2.199219 1.863281 1.863281 C 2.199219 1.527344 2.597656 1.363281 3.066406 1.363281 L 11.933594 1.363281 C 12.402344 1.363281 12.800781 1.527344 13.136719 1.863281 C 13.472656 2.199219 13.636719 2.597656 13.636719 3.066406 Z M 13.636719 11.933594 "/>
</g>
</svg>
